# Blender v2.76 (sub 0) OBJ File: 'Traeger_Ring_mid_v1.blend'
# www.blender.org
mtllib Traeger_Ring_mid_v1.mtl
o Sphere.002
v 0.000000 0.769861 -0.123499
v -0.179593 0.742352 -0.123499
v -0.743640 0.208958 -0.123499
v -0.767284 0.000000 -0.123499
v -0.743640 -0.208957 -0.123499
v -0.179593 -0.742351 -0.123500
v -0.000000 -0.769861 -0.123500
v 0.179593 -0.742351 -0.123500
v 0.743640 -0.208958 -0.123499
v 0.767284 0.000000 -0.123499
v 0.743640 0.208958 -0.123499
v 0.179594 0.742352 -0.123499
v 0.000000 0.769861 0.123500
v -0.179593 0.742352 0.123500
v -0.743640 0.208958 0.123500
v -0.767284 0.000000 0.123500
v -0.743640 -0.208957 0.123500
v -0.179593 -0.742351 0.123500
v -0.000000 -0.769861 0.123500
v 0.179593 -0.742351 0.123500
v 0.743640 -0.208958 0.123500
v 0.767284 0.000000 0.123500
v 0.743640 0.208958 0.123500
v 0.179594 0.742352 0.123500
v 0.000001 3.389670 -0.197726
v -0.877311 3.274169 -0.152458
v -1.694835 2.935540 -0.197726
v -2.396858 2.396859 -0.197726
v -2.935540 1.694835 -0.197726
v -3.274169 0.877312 -0.152458
v -3.389670 0.000001 -0.197726
v -3.274169 -0.877311 -0.152458
v -2.935541 -1.694834 -0.197726
v -2.396859 -2.396857 -0.197726
v -1.694836 -2.935539 -0.197726
v -0.877312 -3.274169 -0.152458
v -0.000001 -3.389669 -0.197726
v 0.877310 -3.274169 -0.152458
v 1.694834 -2.935540 -0.197726
v 2.396857 -2.396859 -0.197726
v 2.935539 -1.694835 -0.197726
v 3.274169 -0.877312 -0.152458
v 3.389670 -0.000002 -0.197726
v 3.274170 0.877309 -0.152458
v 2.935541 1.694834 -0.197726
v 2.396859 2.396858 -0.197726
v 1.694836 2.935539 -0.197726
v 0.877313 3.274169 -0.152458
v 0.000001 3.389670 0.197727
v -0.877311 3.274169 0.152459
v -1.694835 2.935540 0.197727
v -2.396858 2.396859 0.197727
v -2.935540 1.694835 0.197727
v -3.274169 0.877312 0.152459
v -3.389670 0.000001 0.197726
v -3.274169 -0.877311 0.152459
v -2.935541 -1.694833 0.197726
v -2.396859 -2.396857 0.197726
v -1.694836 -2.935539 0.197726
v -0.877312 -3.274169 0.152459
v -0.000001 -3.389669 0.197726
v 0.877310 -3.274169 0.152459
v 1.694834 -2.935540 0.197726
v 2.396857 -2.396859 0.197726
v 2.935539 -1.694835 0.197726
v 3.274169 -0.877312 0.152459
v 3.389670 -0.000002 0.197726
v 3.274170 0.877309 0.152459
v 2.935541 1.694834 0.197727
v 2.396859 2.396858 0.197727
v 1.694836 2.935539 0.197727
v 0.877313 3.274169 0.152459
v -0.975081 3.639054 -0.197726
v 0.000001 3.767426 -0.197726
v -1.883713 3.262687 -0.197726
v -2.663972 2.663973 -0.197726
v -3.262687 1.883713 -0.197726
v -3.639054 0.975083 -0.197726
v -3.767426 0.000001 -0.197726
v -3.639054 -0.975081 -0.197726
v -3.262687 -1.883712 -0.197726
v -2.663974 -2.663971 -0.197726
v -1.883714 -3.262686 -0.197726
v -0.975083 -3.639054 -0.197726
v -0.000001 -3.767426 -0.197726
v 0.975080 -3.639054 -0.197726
v 1.883712 -3.262687 -0.197726
v 2.663971 -2.663974 -0.197726
v 3.262686 -1.883714 -0.197726
v 3.639054 -0.975083 -0.197726
v 3.767426 -0.000002 -0.197726
v 3.639055 0.975080 -0.197726
v 3.262687 1.883712 -0.197726
v 2.663974 2.663972 -0.197726
v 1.883715 3.262686 -0.197726
v 0.975084 3.639054 -0.197726
v -0.975081 3.639054 0.197727
v 0.000001 3.767426 0.197727
v -1.883713 3.262687 0.197727
v -2.663972 2.663973 0.197727
v -3.262687 1.883713 0.197727
v -3.639054 0.975083 0.197726
v -3.767426 0.000001 0.197726
v -3.639054 -0.975081 0.197726
v -3.262687 -1.883711 0.197726
v -2.663974 -2.663971 0.197726
v -1.883714 -3.262686 0.197726
v -0.975083 -3.639054 0.197726
v -0.000001 -3.767426 0.197726
v 0.975080 -3.639054 0.197726
v 1.883712 -3.262687 0.197726
v 2.663971 -2.663974 0.197726
v 3.262686 -1.883714 0.197726
v 3.639054 -0.975083 0.197726
v 3.767426 -0.000002 0.197726
v 3.639055 0.975080 0.197726
v 3.262687 1.883712 0.197727
v 2.663974 2.663972 0.197727
v 1.883715 3.262686 0.197727
v 0.975084 3.639054 0.197727
v -0.583449 3.067964 -0.170503
v 0.000001 3.121654 -0.221128
v -3.121654 0.000001 -0.221128
v -3.067964 0.583452 -0.170503
v -3.067964 -0.583450 -0.170503
v -0.000001 -3.121654 -0.221128
v -0.583451 -3.067963 -0.170503
v 0.583449 -3.067964 -0.170503
v 3.121654 -0.000002 -0.221128
v 3.067963 -0.583452 -0.170503
v 3.067964 0.583449 -0.170503
v 0.583451 3.067964 -0.170503
v -0.583449 3.067964 0.170504
v 0.000001 3.121654 0.221129
v -3.121654 0.000001 0.221129
v -3.067964 0.583452 0.170504
v -3.067964 -0.583450 0.170503
v -0.000001 -3.121654 0.221129
v -0.583451 -3.067963 0.170503
v 0.583449 -3.067964 0.170503
v 3.121654 -0.000002 0.221129
v 3.067963 -0.583452 0.170503
v 3.067964 0.583449 0.170504
v 0.583451 3.067964 0.170504
v 1.591597 0.269007 -0.112261
v 1.591597 0.269007 0.112261
v 1.591597 -0.269008 0.112261
v 1.619401 -0.000001 0.145594
v 1.591597 -0.269008 -0.112261
v 1.619401 -0.000001 -0.145593
v -0.269008 -1.591597 0.112261
v -0.269008 -1.591597 -0.112261
v -0.000000 -1.619400 0.145594
v 0.269007 -1.591597 0.112261
v 0.269007 -1.591597 -0.112261
v -0.000000 -1.619400 -0.145593
v -1.591597 -0.269007 0.112261
v -1.591597 -0.269007 -0.112261
v -1.619400 0.000001 -0.145593
v -1.591597 0.269008 0.112261
v -1.619400 0.000001 0.145594
v -1.591597 0.269008 -0.112261
v -0.269007 1.591597 -0.112261
v 0.000000 1.619401 -0.145593
v 0.269008 1.591597 -0.112261
v 0.269008 1.591597 0.112261
v 0.000000 1.619401 0.145594
v -0.269007 1.591597 0.112261
v 2.552506 0.391958 0.134736
v 2.552505 -0.391961 0.134736
v 2.552505 -0.391961 -0.134736
v 2.590404 -0.000001 -0.174741
v 2.552506 0.391958 -0.134736
v 2.590404 -0.000001 0.174742
v -0.391960 -2.552506 -0.134736
v -0.000001 -2.590404 -0.174741
v -0.391960 -2.552506 0.134736
v -0.000001 -2.590404 0.174741
v 0.391959 -2.552506 0.134736
v 0.391959 -2.552506 -0.134736
v -2.552506 -0.391959 0.134736
v -2.552506 0.391960 0.134736
v -2.552506 0.391960 -0.134736
v -2.552506 -0.391959 -0.134736
v -2.590404 0.000001 -0.174741
v -2.590404 0.000001 0.174742
v -0.391958 2.552506 -0.134735
v 0.000001 2.590404 0.174742
v 0.000001 2.590404 -0.174741
v 0.391960 2.552506 -0.134735
v 0.391960 2.552506 0.134736
v -0.391958 2.552506 0.134736
vn -0.077100 -0.097500 -0.992200
vn -0.077100 0.097500 0.992200
vn -0.086600 0.092900 0.991900
vn 0.097500 -0.077100 -0.992200
vn 0.348200 -0.937400 0.000000
vn -0.097500 -0.077100 0.992200
vn -0.348200 0.937400 -0.000000
vn -0.937400 0.348200 0.000000
vn -0.923900 -0.382700 0.000000
vn 0.574400 0.818600 0.000000
vn -0.011800 -0.053100 0.998500
vn -0.793400 -0.608800 0.000000
vn -0.382700 0.923900 0.000000
vn -0.086600 0.094000 -0.991800
vn -0.608800 -0.793400 0.000000
vn -0.608800 0.793400 0.000000
vn 0.923900 0.382700 0.000000
vn -0.382700 -0.923900 0.000000
vn 0.574400 -0.818600 0.000000
vn -0.793400 0.608800 0.000000
vn 0.793400 0.608800 -0.000000
vn -0.574400 -0.818600 0.000000
vn 0.382700 -0.923900 0.000000
vn -0.923900 0.382700 0.000000
vn 0.608800 0.793400 0.000000
vn 0.608800 -0.793400 0.000000
vn 0.086600 0.094000 -0.991800
vn 0.382700 0.923900 0.000000
vn 0.793400 -0.608800 0.000000
vn -0.818600 0.574400 -0.000000
vn -0.574400 0.818600 0.000000
vn 0.923900 -0.382700 0.000000
vn 0.130500 -0.991400 0.000000
vn -0.991400 0.130500 0.000000
vn -0.991400 -0.130500 0.000000
vn -0.130500 0.991400 0.000000
vn 0.130500 0.991400 0.000000
vn 0.991400 -0.130500 0.000000
vn 0.991400 0.130500 0.000000
vn -0.130500 -0.991400 0.000000
vn 0.000000 0.000000 -1.000000
vn 0.033700 -0.131900 0.990700
vn 0.000000 -0.000000 1.000000
vn -0.033700 0.131900 0.990700
vn -0.095200 -0.097400 -0.990700
vn 0.095200 0.097400 -0.990700
vn -0.095200 0.097400 0.990700
vn 0.095200 -0.097400 0.990700
vn 0.033700 0.131900 -0.990700
vn -0.033700 -0.131900 -0.990700
vn -0.131900 -0.033700 0.990700
vn 0.131900 0.033700 0.990700
vn -0.097400 0.095200 -0.990700
vn -0.097400 -0.095200 0.990700
vn 0.097400 -0.095200 -0.990700
vn 0.097400 0.095200 0.990700
vn -0.131900 0.033700 -0.990700
vn 0.131900 -0.033700 -0.990700
vn -0.094000 -0.086600 -0.991800
vn -0.086600 -0.094000 -0.991800
vn 0.818600 -0.574400 0.000000
vn -0.094000 0.086600 -0.991800
vn 0.094000 0.086600 -0.991800
vn -0.818600 -0.574400 0.000000
vn 0.086600 -0.094000 -0.991800
vn 0.094000 -0.086600 -0.991800
vn 0.092900 -0.086600 -0.991900
vn 0.092900 0.086600 0.991900
vn 0.937400 0.348200 0.000000
vn -0.348200 -0.937400 0.000000
vn 0.097500 0.077100 0.992200
vn 0.348200 0.937400 0.000000
vn -0.086600 -0.092900 -0.991900
vn 0.086600 -0.092900 0.991900
vn 0.937400 -0.348200 0.000000
vn -0.097500 0.077100 -0.992200
vn -0.092900 0.086600 -0.991900
vn -0.092900 -0.086600 0.991900
vn 0.077100 -0.097500 0.992200
vn -0.937400 -0.348200 0.000000
vn 0.077100 0.097500 -0.992200
vn 0.086600 0.092900 -0.991900
vn 0.053100 -0.011800 0.998500
vn -0.094000 -0.086600 0.991800
vn 0.818600 0.574400 -0.000000
vn -0.086600 0.094000 0.991800
vn 0.094000 0.086600 0.991800
vn -0.053100 0.011800 0.998500
vn 0.086600 -0.094000 0.991800
vn 0.011800 0.053100 0.998500
vn 0.013100 0.001500 -0.999900
vn -0.025700 -0.120300 -0.992400
vn -0.070600 -0.997500 0.000000
vn -0.070600 0.997500 -0.000000
vn 0.013100 -0.001500 0.999900
vn -0.025700 0.120300 0.992400
vn 0.002000 -0.013000 -0.999900
vn -0.120300 0.025800 -0.992400
vn 0.994500 0.104700 0.000000
vn 0.120300 0.025800 0.992400
vn -0.994500 0.104700 0.000000
vn -0.002000 -0.013000 0.999900
vn 0.025700 0.120300 -0.992400
vn 0.025700 -0.120300 0.992400
vn 0.070600 0.997500 0.000000
vn -0.013100 0.001500 0.999900
vn 0.070600 -0.997500 0.000000
vn -0.013100 -0.001500 -0.999900
vn -0.994500 -0.104700 0.000000
vn 0.002000 0.013000 0.999900
vn -0.120300 -0.025800 0.992400
vn 0.994500 -0.104700 0.000000
vn 0.120300 -0.025800 -0.992400
vn -0.002000 0.013000 -0.999900
vn -0.038400 0.119000 -0.992200
vn -0.029900 -0.098600 -0.994700
vn -0.126900 -0.991900 0.000000
vn -0.126900 0.991900 -0.000000
vn -0.038400 -0.119000 0.992200
vn -0.029900 0.098600 0.994700
vn 0.119000 0.038400 -0.992200
vn -0.098600 0.029900 -0.994700
vn 0.991900 0.126900 0.000000
vn 0.098600 0.029900 0.994700
vn -0.991900 0.126900 0.000000
vn -0.119000 0.038400 0.992200
vn 0.029900 0.098600 -0.994700
vn 0.029900 -0.098600 0.994700
vn 0.126900 0.991900 0.000000
vn 0.038400 0.119000 0.992200
vn 0.126900 -0.991900 0.000000
vn 0.038400 -0.119000 -0.992200
vn -0.991900 -0.126900 0.000000
vn 0.119000 -0.038400 0.992200
vn -0.098600 -0.029900 0.994700
vn 0.991900 -0.126900 0.000000
vn 0.098600 -0.029900 -0.994700
vn -0.119000 -0.038400 -0.992200
vn 0.151400 -0.988500 0.000000
vn -0.151400 -0.988500 0.000000
vn -0.993700 0.112400 0.000000
vn -0.993700 -0.112400 0.000000
vn 0.993700 -0.112400 0.000000
vn 0.993700 0.112400 -0.000000
vn -0.151400 0.988500 0.000000
vn 0.151400 0.988500 0.000000
vn -0.092900 -0.086600 -0.991900
vn -0.092900 0.086600 0.991900
vn -0.097500 0.077100 0.992200
vn 0.086600 -0.092900 -0.991900
vn -0.086600 -0.092900 0.991900
vn -0.086600 -0.094000 0.991800
vn -0.011800 0.053100 -0.998500
vn 0.011800 0.053100 -0.998500
vn 0.097400 0.095200 -0.990700
vn 0.095200 0.097400 0.990700
vn 0.033700 0.131900 0.990700
vn 0.033700 -0.131900 -0.990700
vn -0.033700 -0.131900 0.990700
vn -0.033700 0.131900 -0.990700
vn -0.095200 0.097400 -0.990700
vn -0.097400 0.095200 0.990700
vn 0.095200 -0.097400 -0.990700
vn 0.097400 -0.095200 0.990700
vn -0.131900 0.033700 0.990700
vn 0.131900 -0.033700 0.990700
vn -0.131900 -0.033700 -0.990700
vn 0.131900 0.033700 -0.990700
vn -0.097400 -0.095200 -0.990700
vn -0.095200 -0.097400 0.990700
vn -0.053100 -0.011700 -0.998500
vn -0.011800 -0.053100 -0.998500
vn -0.053100 0.011800 -0.998500
vn 0.053100 0.011800 -0.998500
vn 0.011800 -0.053100 -0.998500
vn 0.053100 -0.011800 -0.998500
vn 0.077100 -0.097500 -0.992200
vn 0.077100 0.097500 0.992200
vn 0.086600 0.092900 0.991900
vn -0.097500 -0.077100 -0.992200
vn 0.097500 -0.077100 0.992200
vn -0.086600 0.092900 -0.991900
vn -0.077100 0.097500 -0.992200
vn -0.077100 -0.097500 0.992200
vn 0.092900 -0.086600 0.991900
vn 0.092900 0.086600 -0.991900
vn 0.097500 0.077100 -0.992200
vn 0.094000 -0.086600 0.991800
vn -0.053100 -0.011800 0.998500
vn -0.011800 0.053100 0.998500
vn 0.053100 0.011800 0.998500
vn -0.094000 0.086600 0.991800
vn 0.011800 -0.053100 0.998500
vn 0.086600 0.094000 0.991800
vn -0.025700 0.120300 -0.992400
vn 0.013100 -0.001500 -0.999900
vn -0.025700 -0.120300 0.992400
vn 0.013100 0.001500 0.999900
vn 0.120300 0.025800 -0.992400
vn -0.002000 -0.013000 -0.999900
vn 0.002000 -0.013000 0.999900
vn -0.120300 0.025800 0.992400
vn -0.013100 0.001500 -0.999900
vn -0.013100 -0.001500 0.999900
vn 0.025700 0.120300 0.992400
vn 0.025700 -0.120300 -0.992400
vn 0.120300 -0.025800 0.992400
vn -0.002000 0.013000 0.999900
vn 0.002000 0.013000 -0.999900
vn -0.120300 -0.025800 -0.992400
vn -0.029900 0.098600 -0.994700
vn -0.038400 -0.119000 -0.992200
vn -0.029900 -0.098600 0.994700
vn -0.038400 0.119000 0.992200
vn 0.098600 0.029900 -0.994700
vn -0.119000 0.038400 -0.992200
vn 0.119000 0.038400 0.992200
vn -0.098600 0.029900 0.994700
vn 0.038400 0.119000 -0.992200
vn 0.038400 -0.119000 0.992200
vn 0.029900 0.098600 0.994700
vn 0.029900 -0.098600 -0.994700
vn 0.098600 -0.029900 0.994700
vn -0.119000 -0.038400 0.992200
vn 0.119000 -0.038400 -0.992200
vn -0.098600 -0.029900 -0.994700
usemtl None
s off
f 187//1 121//1 122//1
f 177//2 139//2 138//2
f 169//3 174//3 141//3
f 184//4 125//4 123//4
f 181//5 137//5 125//5
f 170//6 142//6 141//6
f 169//7 143//7 131//7
f 177//8 175//8 127//8
f 68//9 69//9 45//9
f 62//10 38//10 128//10
f 55//11 56//11 137//11
f 69//12 70//12 46//12
f 62//13 63//13 39//13
f 124//14 123//14 31//14
f 70//15 71//15 47//15
f 63//16 64//16 40//16
f 32//17 56//17 57//17
f 71//18 72//18 48//18
f 144//19 132//19 48//19
f 64//20 65//20 41//20
f 33//21 57//21 58//21
f 50//22 26//22 121//22
f 50//23 51//23 27//23
f 65//24 66//24 42//24
f 58//25 59//25 35//25
f 51//26 52//26 28//26
f 43//27 129//27 131//27
f 59//28 60//28 36//28
f 52//29 53//29 29//29
f 131//30 143//30 68//30
f 60//31 139//31 127//31
f 53//32 54//32 30//32
f 92//17 93//17 117//17
f 86//33 110//33 109//33
f 79//34 103//34 102//34
f 94//21 118//21 117//21
f 87//23 111//23 110//23
f 80//35 104//35 103//35
f 95//25 119//25 118//25
f 88//26 112//26 111//26
f 81//9 105//9 104//9
f 96//28 120//28 119//28
f 73//36 97//36 98//36
f 89//29 113//29 112//29
f 81//12 82//12 106//12
f 74//37 98//37 120//37
f 75//13 99//13 97//13
f 90//32 114//32 113//32
f 83//15 107//15 106//15
f 76//16 100//16 99//16
f 91//38 115//38 114//38
f 84//18 108//18 107//18
f 77//20 101//20 100//20
f 92//39 116//39 115//39
f 85//40 109//40 108//40
f 78//24 102//24 101//24
f 46//41 94//41 93//41
f 49//42 72//42 120//42
f 33//41 81//41 80//41
f 59//43 107//43 108//43
f 46//41 47//41 95//41
f 34//41 82//41 81//41
f 61//44 60//44 108//44
f 47//45 48//45 96//45
f 35//41 83//41 82//41
f 61//43 109//43 110//43
f 25//41 74//41 96//41
f 35//46 36//46 84//46
f 63//47 62//47 110//47
f 49//43 98//43 97//43
f 37//41 85//41 84//41
f 63//43 111//43 112//43
f 51//48 50//48 97//48
f 37//49 38//49 86//49
f 64//43 112//43 113//43
f 52//43 51//43 99//43
f 39//41 87//41 86//41
f 65//43 113//43 114//43
f 25//50 26//50 73//50
f 53//43 52//43 100//43
f 40//41 88//41 87//41
f 67//51 66//51 114//51
f 27//41 75//41 73//41
f 53//43 101//43 102//43
f 41//41 89//41 88//41
f 67//43 115//43 116//43
f 28//41 76//41 75//41
f 55//52 54//52 102//52
f 41//53 42//53 90//53
f 69//54 68//54 116//54
f 29//41 77//41 76//41
f 55//43 103//43 104//43
f 43//41 91//41 90//41
f 70//43 69//43 117//43
f 29//55 30//55 78//55
f 57//56 56//56 104//56
f 43//57 44//57 92//57
f 70//43 118//43 119//43
f 31//41 79//41 78//41
f 57//43 105//43 106//43
f 45//41 93//41 92//41
f 71//43 119//43 120//43
f 31//58 32//58 80//58
f 58//43 106//43 107//43
f 127//59 126//59 37//59
f 31//60 123//60 125//60
f 56//61 32//61 125//61
f 25//62 122//62 121//62
f 132//63 122//63 25//63
f 142//64 130//64 42//64
f 130//65 129//65 43//65
f 37//66 126//66 128//66
f 190//67 189//67 122//67
f 179//68 178//68 138//68
f 179//69 140//69 128//69
f 170//70 171//70 130//70
f 182//71 136//71 135//71
f 182//72 183//72 124//72
f 171//73 172//73 129//73
f 181//74 186//74 135//74
f 190//75 132//75 144//75
f 173//76 131//76 129//76
f 175//77 176//77 126//77
f 192//78 188//78 134//78
f 191//79 144//79 134//79
f 187//80 192//80 133//80
f 180//81 128//81 126//81
f 183//82 185//82 123//82
f 61//83 62//83 140//83
f 61//84 138//84 139//84
f 30//85 54//85 136//85
f 55//86 135//86 136//86
f 49//87 134//87 144//87
f 49//88 50//88 133//88
f 67//89 141//89 142//89
f 67//90 68//90 143//90
f 10//91 11//91 145//91
f 10//92 150//92 149//92
f 21//93 9//93 149//93
f 11//94 23//94 146//94
f 22//95 21//95 147//95
f 22//96 148//96 146//96
f 7//97 8//97 155//97
f 7//98 156//98 152//98
f 8//99 20//99 154//99
f 19//100 153//100 154//100
f 6//101 152//101 151//101
f 19//102 18//102 151//102
f 4//103 159//103 162//103
f 16//104 161//104 157//104
f 3//105 162//105 160//105
f 16//106 15//106 160//106
f 17//107 157//107 158//107
f 4//108 5//108 158//108
f 14//109 168//109 163//109
f 13//110 24//110 166//110
f 13//111 167//111 168//111
f 12//112 165//112 166//112
f 1//113 164//113 165//113
f 1//114 2//114 163//114
f 150//115 145//115 173//115
f 150//116 172//116 171//116
f 149//117 171//117 170//117
f 146//118 169//118 173//118
f 148//119 147//119 170//119
f 148//120 174//120 169//120
f 156//121 155//121 180//121
f 156//122 176//122 175//122
f 154//123 179//123 180//123
f 153//124 178//124 179//124
f 152//125 175//125 177//125
f 153//126 151//126 177//126
f 159//127 185//127 183//127
f 161//128 186//128 181//128
f 162//129 183//129 182//129
f 161//130 160//130 182//130
f 157//131 181//131 184//131
f 159//132 158//132 184//132
f 168//133 192//133 187//133
f 167//134 166//134 191//134
f 167//135 188//135 192//135
f 165//136 190//136 191//136
f 164//137 189//137 190//137
f 164//138 163//138 187//138
f 13//139 14//139 2//139
f 24//140 13//140 1//140
f 21//141 22//141 10//141
f 22//142 23//142 11//142
f 15//143 16//143 4//143
f 16//144 17//144 5//144
f 19//145 20//145 8//145
f 18//146 19//146 7//146
f 189//147 187//147 122//147
f 178//148 177//148 138//148
f 143//149 169//149 141//149
f 185//150 184//150 123//150
f 184//5 181//5 125//5
f 174//151 170//151 141//151
f 173//7 169//7 131//7
f 139//8 177//8 127//8
f 44//9 68//9 45//9
f 140//10 62//10 128//10
f 135//152 55//152 137//152
f 45//12 69//12 46//12
f 38//13 62//13 39//13
f 30//153 124//153 31//153
f 46//15 70//15 47//15
f 39//16 63//16 40//16
f 33//17 32//17 57//17
f 47//18 71//18 48//18
f 72//19 144//19 48//19
f 40//20 64//20 41//20
f 34//21 33//21 58//21
f 133//22 50//22 121//22
f 26//23 50//23 27//23
f 41//24 65//24 42//24
f 34//25 58//25 35//25
f 27//26 51//26 28//26
f 44//154 43//154 131//154
f 35//28 59//28 36//28
f 28//29 52//29 29//29
f 44//30 131//30 68//30
f 36//31 60//31 127//31
f 29//32 53//32 30//32
f 116//17 92//17 117//17
f 85//33 86//33 109//33
f 78//34 79//34 102//34
f 93//21 94//21 117//21
f 86//23 87//23 110//23
f 79//35 80//35 103//35
f 94//25 95//25 118//25
f 87//26 88//26 111//26
f 80//9 81//9 104//9
f 95//28 96//28 119//28
f 74//36 73//36 98//36
f 88//29 89//29 112//29
f 105//12 81//12 106//12
f 96//37 74//37 120//37
f 73//13 75//13 97//13
f 89//32 90//32 113//32
f 82//15 83//15 106//15
f 75//16 76//16 99//16
f 90//38 91//38 114//38
f 83//18 84//18 107//18
f 76//20 77//20 100//20
f 91//39 92//39 115//39
f 84//40 85//40 108//40
f 77//24 78//24 101//24
f 45//41 46//41 93//41
f 98//43 49//43 120//43
f 32//155 33//155 80//155
f 60//156 59//156 108//156
f 94//41 46//41 95//41
f 33//41 34//41 81//41
f 109//43 61//43 108//43
f 95//41 47//41 96//41
f 34//41 35//41 82//41
f 62//157 61//157 110//157
f 48//158 25//158 96//158
f 83//41 35//41 84//41
f 111//43 63//43 110//43
f 50//159 49//159 97//159
f 36//160 37//160 84//160
f 64//43 63//43 112//43
f 99//43 51//43 97//43
f 85//41 37//41 86//41
f 65//43 64//43 113//43
f 100//43 52//43 99//43
f 38//161 39//161 86//161
f 66//162 65//162 114//162
f 74//41 25//41 73//41
f 101//43 53//43 100//43
f 39//41 40//41 87//41
f 115//43 67//43 114//43
f 26//163 27//163 73//163
f 54//164 53//164 102//164
f 40//41 41//41 88//41
f 68//165 67//165 116//165
f 27//41 28//41 75//41
f 103//43 55//43 102//43
f 89//41 41//41 90//41
f 117//43 69//43 116//43
f 28//41 29//41 76//41
f 56//166 55//166 104//166
f 42//167 43//167 90//167
f 118//43 70//43 117//43
f 77//41 29//41 78//41
f 105//43 57//43 104//43
f 91//41 43//41 92//41
f 71//43 70//43 119//43
f 30//168 31//168 78//168
f 58//43 57//43 106//43
f 44//169 45//169 92//169
f 72//170 71//170 120//170
f 79//41 31//41 80//41
f 59//43 58//43 107//43
f 36//171 127//171 37//171
f 32//172 31//172 125//172
f 137//61 56//61 125//61
f 26//173 25//173 121//173
f 48//174 132//174 25//174
f 66//64 142//64 42//64
f 42//175 130//175 43//175
f 38//176 37//176 128//176
f 132//177 190//177 122//177
f 140//178 179//178 138//178
f 180//69 179//69 128//69
f 142//70 170//70 130//70
f 186//179 182//179 135//179
f 136//72 182//72 124//72
f 130//180 171//180 129//180
f 137//181 181//181 135//181
f 191//75 190//75 144//75
f 172//182 173//182 129//182
f 127//183 175//183 126//183
f 133//184 192//184 134//184
f 188//185 191//185 134//185
f 121//80 187//80 133//80
f 176//186 180//186 126//186
f 124//187 183//187 123//187
f 138//188 61//188 140//188
f 60//189 61//189 139//189
f 124//85 30//85 136//85
f 54//190 55//190 136//190
f 72//191 49//191 144//191
f 134//192 49//192 133//192
f 66//193 67//193 142//193
f 141//194 67//194 143//194
f 150//195 10//195 145//195
f 9//196 10//196 149//196
f 147//93 21//93 149//93
f 145//94 11//94 146//94
f 148//197 22//197 147//197
f 23//198 22//198 146//198
f 156//199 7//199 155//199
f 6//200 7//200 152//200
f 155//99 8//99 154//99
f 20//201 19//201 154//201
f 18//101 6//101 151//101
f 153//202 19//202 151//202
f 3//203 4//203 162//203
f 17//204 16//204 157//204
f 15//105 3//105 160//105
f 161//205 16//205 160//205
f 5//107 17//107 158//107
f 159//206 4//206 158//206
f 2//109 14//109 163//109
f 167//207 13//207 166//207
f 14//208 13//208 168//208
f 24//112 12//112 166//112
f 12//209 1//209 165//209
f 164//210 1//210 163//210
f 172//211 150//211 173//211
f 149//212 150//212 171//212
f 147//117 149//117 170//117
f 145//118 146//118 173//118
f 174//213 148//213 170//213
f 146//214 148//214 169//214
f 176//215 156//215 180//215
f 152//216 156//216 175//216
f 155//123 154//123 180//123
f 154//217 153//217 179//217
f 151//125 152//125 177//125
f 178//218 153//218 177//218
f 162//219 159//219 183//219
f 157//220 161//220 181//220
f 160//129 162//129 182//129
f 186//221 161//221 182//221
f 158//131 157//131 184//131
f 185//222 159//222 184//222
f 163//133 168//133 187//133
f 188//223 167//223 191//223
f 168//224 167//224 192//224
f 166//136 165//136 191//136
f 165//225 164//225 190//225
f 189//226 164//226 187//226
f 1//139 13//139 2//139
f 12//140 24//140 1//140
f 9//141 21//141 10//141
f 10//142 22//142 11//142
f 3//143 15//143 4//143
f 4//144 16//144 5//144
f 7//145 19//145 8//145
f 6//146 18//146 7//146
